<svg version="1.1" xmlns="http://www.w3.org/2000/svg" xmlns:xlink="http://www.w3.org/1999/xlink" x="0px" y="0px" style="enable-background:new 0 0 595.3 841.9;" xml:space="preserve" viewBox="298.08 165.88 145.42 145.42">
<style type="text/css">
	.st0{fill:#2E3192;}
	.st1{fill:#FFFFFF;}
</style>
<g id="Layer_1">
	<circle class="st0" cx="370.8" cy="238.6" r="72.7"/>
</g>
<g id="Layer_2">
</g>
<g id="Layer_4">
</g>
<g id="Layer_3">
	<g>
		<path class="st1" d="M405.2,266.4C405.2,266.4,405.2,266.4,405.2,266.4c0,0.3,0,0.6-0.1,0.8c0,0,0,0,0,0c0,0,0,0.1,0,0.1    c0,0.2-0.1,0.4-0.2,0.7c0,0,0,0.1-0.1,0.1c-0.1,0.2-0.2,0.4-0.3,0.6c0,0-0.1,0.1-0.1,0.1c-0.1,0.2-0.3,0.4-0.5,0.6c0,0,0,0,0,0    c0,0,0,0,0,0c0,0,0,0,0,0c-9,8.8-20.8,13.2-32.5,13.2c-11.8,0-23.6-4.4-32.6-13.3c-8.7-8.6-13.5-19.9-13.5-32    c0-12.1,4.8-23.5,13.5-32c8.7-8.6,20.3-13.3,32.6-13.3c12.3,0,23.9,4.7,32.6,13.3c1.7,1.7,1.7,4.4,0,6.1l-3.1,3.1    c-0.8,0.8-1.9,1.3-3.1,1.3c-1.2,0-2.3-0.5-3.1-1.3c-6.2-6.1-14.5-9.5-23.3-9.5s-17,3.4-23.3,9.5c-12.8,12.6-12.8,33.1,0,45.8    c10.7,10.5,26.9,12.2,39.4,5.3l-18.2-17.9c-0.8-0.8-1.3-1.9-1.3-3c0-1.1,0.5-2.2,1.3-3l3.1-3.1c1.7-1.7,4.5-1.7,6.2,0l25.3,24.9    c0.2,0.2,0.3,0.4,0.5,0.6c0,0,0.1,0.1,0.1,0.1c0.1,0.2,0.3,0.4,0.3,0.6c0,0,0,0.1,0,0.1c0.1,0.2,0.2,0.4,0.2,0.7c0,0,0,0.1,0,0.1    C405.2,265.8,405.2,266,405.2,266.4C405.2,266.3,405.2,266.3,405.2,266.4z"/>
	</g>
</g>
<g id="Layer_5">
</g>
<g id="Layer_6">
</g>
</svg>